<?xml version="1.0" encoding="utf-8"?>
<!-- Generator: Adobe Illustrator 16.0.1, SVG Export Plug-In . SVG Version: 6.00 Build 0)  -->
<!DOCTYPE svg PUBLIC "-//W3C//DTD SVG 1.1//EN" "http://www.w3.org/Graphics/SVG/1.1/DTD/svg11.dtd">
<svg version="1.1" id="Слой_1" xmlns="http://www.w3.org/2000/svg" xmlns:xlink="http://www.w3.org/1999/xlink" x="0px" y="0px"
	 width="18px" height="18px" viewBox="0 0 18 18" enable-background="new 0 0 18 18" xml:space="preserve">
<g>
	<g>
		<path fill="#6F92C7" d="M18,12.979C18,17.409,17.409,18,12.979,18H5.021C0.591,18,0,17.409,0,12.979v-6
			c0-4.43,0.591-5.021,5.021-5.021h7.959c4.43,0,5.021,0.591,5.021,5.021V12.979z"/>
		<rect x="3.959" fill="#6F92C7" width="2.041" height="2.958"/>
		<rect x="12" fill="#6F92C7" width="2" height="3.375"/>
	</g>
	<g>
		<rect x="3.959" y="2.958" fill="#FFFFFF" width="2" height="2.083"/>
		<rect x="12" y="2.958" fill="#FFFFFF" width="2" height="2.083"/>
	</g>
	<g>
		<path fill="#FFFFFF" d="M6.447,12.497l2.329-1.909c0.87-0.719,1.21-1.1,1.21-1.679C9.986,8.319,9.596,8,9.047,8
			c-0.54,0-0.91,0.3-1.43,0.939l-1.08-0.87C7.228,7.13,7.896,6.62,9.146,6.62c1.449,0,2.408,0.85,2.408,2.179
			c0,1.17-0.6,1.749-1.839,2.709l-1.14,0.879h3.049v1.33H6.447V12.497z"/>
	</g>
</g>
</svg>
