<?xml version="1.0" encoding="utf-8"?>
<!-- Generator: Adobe Illustrator 16.0.1, SVG Export Plug-In . SVG Version: 6.00 Build 0)  -->
<!DOCTYPE svg PUBLIC "-//W3C//DTD SVG 1.1//EN" "http://www.w3.org/Graphics/SVG/1.1/DTD/svg11.dtd">
<svg version="1.1" id="Слой_1" xmlns="http://www.w3.org/2000/svg" xmlns:xlink="http://www.w3.org/1999/xlink" x="0px" y="0px"
	 width="22.218px" height="26px" viewBox="0 0 22.218 26" enable-background="new 0 0 22.218 26" xml:space="preserve">
<g>
	<ellipse fill="#6F92C7" cx="19.25" cy="23.001" rx="2.967" ry="2.999"/>
	<path fill="#6F92C7" d="M1.658,4.878c0,0-0.625,2.5,0.813,5.938s3.375,3.75,4.875,3.75s3.75-1,4.625-3.813s1.313-5.75,0.813-7.313
		s-2.938-0.5-4.063-1.688s0.813-2.5,3.563-1.25s2.813,5,1.875,9.188s-3.688,5.875-4.625,6.375s-0.938,0.5-0.938,0.5l-0.125,6.436
		c0,0,0.5,0.564,1.75,0.564s1.875-0.564,1.875-0.564l0.125-3.623c0,0-0.438-4.375,4.063-4.375s3.875,4.313,3.875,4.313l0.029,2.625
		l-1.967-0.125l-0.063-3.188c0,0,0-1.625-1.875-1.625s-1.938,2-1.938,2l-0.25,3.998c0,0-0.188,2.999-3.875,2.999
		c0,0-4-0.501-4-2.999s0.063-6.123,0.063-6.123S-1.467,9.753,1.658,4.878z"/>
	<path fill="#6F92C7" d="M8.42,16.881c0,0,7.75-7.125,4.625-12c0,0,0.625,2.5-0.813,5.938s-3.375,3.75-4.875,3.75
		s-3.75-1-4.625-3.813S1.42,5.006,1.92,3.444s2.938-0.5,4.063-1.688s-0.813-2.5-3.563-1.25s-2.813,5-1.875,9.188
		s3.688,5.875,4.625,6.375s0.938,0.5,0.938,0.5"/>
</g>
</svg>
