<?xml version="1.0" encoding="utf-8"?>
<!-- Generator: Adobe Illustrator 16.0.1, SVG Export Plug-In . SVG Version: 6.00 Build 0)  -->
<!DOCTYPE svg PUBLIC "-//W3C//DTD SVG 1.1//EN" "http://www.w3.org/Graphics/SVG/1.1/DTD/svg11.dtd">
<svg version="1.1" id="Слой_1" xmlns="http://www.w3.org/2000/svg" xmlns:xlink="http://www.w3.org/1999/xlink" x="0px" y="0px"
	 width="21.997px" height="20.997px" viewBox="0 0 21.997 20.997" enable-background="new 0 0 21.997 20.997" xml:space="preserve">
<g>
	<g>
		<path fill="#6F92C7" d="M19,11.79c0-3.428-2.779-3.207-6.207-3.207H9.166c-3.429,0-6.207-0.221-6.207,3.207v5
			c0,3.429-0.222,4.207,3.207,4.207h9.627c3.428,0,3.207-0.778,3.207-4.207V11.79z"/>
		<polygon fill="#6F92C7" points="0,10.958 21.997,10.958 11,0 		"/>
	</g>
	<g>
		<path fill="#FFFFFF" d="M13,16.199c0,1.109-0.9,2.01-2.01,2.01l0,0c-1.111,0-2.011-0.9-2.011-2.01v-2.146
			c0-1.11,0.899-2.011,2.011-2.011l0,0c1.109,0,2.01,0.9,2.01,2.011V16.199z"/>
		<rect x="8.979" y="14.789" fill="#FFFFFF" width="4.021" height="6.208"/>
	</g>
</g>
</svg>
