<?xml version="1.0" encoding="utf-8"?>
<!-- Generator: Adobe Illustrator 16.0.1, SVG Export Plug-In . SVG Version: 6.00 Build 0)  -->
<!DOCTYPE svg PUBLIC "-//W3C//DTD SVG 1.1//EN" "http://www.w3.org/Graphics/SVG/1.1/DTD/svg11.dtd">
<svg version="1.1" id="Слой_1" xmlns="http://www.w3.org/2000/svg" xmlns:xlink="http://www.w3.org/1999/xlink" x="0px" y="0px"
	 width="35.142px" height="3.878px" viewBox="0 0 35.142 3.878" enable-background="new 0 0 35.142 3.878" xml:space="preserve">
<path fill="#E79924" d="M35.142,1.939c0,1.071-0.868,1.939-1.939,1.939H1.939C0.868,3.878,0,3.01,0,1.939l0,0
	C0,0.868,0.868,0,1.939,0h31.264C34.274,0,35.142,0.868,35.142,1.939L35.142,1.939z"/>
<g>
	<path fill="#2D4A7C" d="M4.859,26.319h-4.945v-3.462h13.465v3.462H8.435v13.607H4.859V26.319z"/>
	<path fill="#2D4A7C" d="M12.844,33.416c0-3.73,2.53-6.804,6.152-6.804c4.155,0,6.06,3.39,6.06,7.098
		c0,0.292-0.023,0.632-0.047,0.975H16.35c0.348,1.683,1.462,2.561,3.041,2.561c1.184,0,2.043-0.391,3.018-1.342l2.02,1.878
		c-1.161,1.512-2.833,2.438-5.084,2.438C15.606,40.22,12.844,37.464,12.844,33.416z M21.619,32.367
		c-0.208-1.658-1.137-2.779-2.623-2.779c-1.462,0-2.414,1.097-2.693,2.779H21.619z"/>
	<path fill="#2D4A7C" d="M38.936,26.856v13.07h-3.528v-9.899H32.25c0,8.656-1.416,10.046-4.527,10.046
		c-0.464,0-1.324-0.097-1.788-0.22l0.232-2.999c0.139,0.025,0.58,0.073,0.743,0.073c1.323,0,2.02-0.805,2.02-10.071H38.936z"/>
	<path fill="#2D4A7C" d="M41.488,33.416c0-3.73,2.53-6.804,6.152-6.804c4.155,0,6.06,3.39,6.06,7.098
		c0,0.292-0.024,0.632-0.047,0.975h-8.659c0.348,1.683,1.463,2.561,3.042,2.561c1.184,0,2.043-0.391,3.018-1.342l2.02,1.878
		c-1.161,1.512-2.833,2.438-5.084,2.438C44.25,40.22,41.488,37.464,41.488,33.416z M50.263,32.367
		c-0.208-1.658-1.138-2.779-2.623-2.779c-1.463,0-2.415,1.097-2.693,2.779H50.263z"/>
	<path fill="#2D4A7C" d="M56.32,26.856h3.575l3.366,5.487l3.413-5.487h3.576v13.07h-3.576v-7.852l-3.459,5.365l-3.413-5.292v7.778
		H56.32V26.856z"/>
	<path fill="#2D4A7C" d="M72.8,33.416c0-3.73,2.53-6.804,6.152-6.804c4.156,0,6.06,3.39,6.06,7.098c0,0.292-0.023,0.632-0.047,0.975
		h-8.659c0.348,1.683,1.462,2.561,3.042,2.561c1.184,0,2.043-0.391,3.018-1.342l2.02,1.878c-1.161,1.512-2.833,2.438-5.085,2.438
		C75.563,40.22,72.8,37.464,72.8,33.416z M81.576,32.367c-0.208-1.658-1.137-2.779-2.624-2.779c-1.463,0-2.414,1.097-2.693,2.779
		H81.576z"/>
	<path fill="#2D4A7C" d="M89.489,39.927L89.235,43h-2.972v-6.243h1.346c1.045-2.34,1.207-5.634,1.207-8.779v-1.121h10.168v9.9h1.695
		L100.262,43h-2.971v-3.073H89.489z M95.457,36.757v-6.729h-3.32v0.292c-0.023,2.219-0.163,4.511-0.929,6.438H95.457z"/>
	<path fill="#2D4A7C" d="M114.188,39.927h-3.413v-7.608l-4.852,7.608h-3.319v-13.07h3.412v7.633l4.853-7.633h3.319V39.927z"/>
	<path fill="#2D4A7C" d="M126.955,39.927h-9.611v-13.07h3.529v9.9h4.248v-9.9h3.529v9.9h1.694L129.927,43h-2.972V39.927z"/>
	<path fill="#2D4A7C" d="M143.853,39.927h-3.412v-7.608l-4.853,7.608h-3.319v-13.07h3.413v7.633l4.852-7.633h3.319V39.927z"/>
	<path fill="#2D4A7C" d="M158.407,39.927h-3.529v-4.999h-4.341v4.999h-3.529v-13.07h3.529v5.023h4.341v-5.023h3.529V39.927z"/>
	<path fill="#2D4A7C" d="M160.819,36.123c0-2.853,2.066-4.17,5.015-4.17c1.254,0,2.159,0.219,3.04,0.537V32.27
		c0-1.536-0.903-2.39-2.669-2.39c-1.346,0-2.298,0.269-3.436,0.708l-0.882-2.829c1.369-0.634,2.716-1.049,4.829-1.049
		c1.926,0,3.319,0.537,4.201,1.463c0.929,0.976,1.347,2.415,1.347,4.171v7.583h-3.413v-1.414c-0.858,1-2.043,1.657-3.761,1.657
		C162.746,40.17,160.819,38.757,160.819,36.123z M168.922,35.318V34.66c-0.604-0.293-1.393-0.487-2.252-0.487
		c-1.51,0-2.438,0.633-2.438,1.853c0,1,0.79,1.586,1.928,1.586C167.808,37.611,168.922,36.659,168.922,35.318z"/>
</g>
</svg>
