<?xml version="1.0" encoding="utf-8"?>
<!-- Generator: Adobe Illustrator 16.0.4, SVG Export Plug-In . SVG Version: 6.00 Build 0)  -->
<!DOCTYPE svg PUBLIC "-//W3C//DTD SVG 1.1//EN" "http://www.w3.org/Graphics/SVG/1.1/DTD/svg11.dtd">
<svg version="1.1" id="Layer_1" xmlns="http://www.w3.org/2000/svg" xmlns:xlink="http://www.w3.org/1999/xlink" x="0px" y="0px"
	 width="67.516px" height="127.885px" viewBox="0 0 67.516 127.885" enable-background="new 0 0 67.516 127.885"
	 xml:space="preserve">
<g>
	<path fill="#FFFFFF" d="M0.004,100.645h8.794c2.847,0,4.428-1.457,5.314-2.848c1.075-1.771,1.075-3.859,1.075-5.758v-6.326
		c0-1.771,0-3.417-0.569-4.809c-0.506-1.267-1.581-2.656-3.733-3.29l0.064-0.19c1.266-0.254,2.404-0.887,3.163-2.278
		c0.822-1.454,0.887-3.226,0.887-4.809v-4.429c0-2.468-0.129-5.188-1.709-7.148c-0.887-1.076-2.657-2.403-5.695-2.403H0.004V100.645
		z M4.938,95.961V79.513h1.455c0.822,0,2.341,0.062,3.227,1.519c0.634,1.074,0.634,2.594,0.634,4.238v6.58
		c0,1.582-0.19,2.467-0.571,3.036c-0.694,1.012-2.023,1.075-2.656,1.075H4.938z M4.938,74.957v-13.92h1.455
		c1.328,0,2.341,0.443,2.911,1.013c0.821,0.886,0.821,2.277,0.821,3.227v5.314c0,1.456-0.126,2.722-0.76,3.479
		c-0.759,0.822-1.771,0.887-2.467,0.887H4.938z"/>
	<path fill="#FFFFFF" d="M23.604,100.645v-19.93c1.013,0.125,2.974,0.316,4.113,0.253c1.707-0.063,3.353-0.57,4.554-2.277
		c1.077-1.456,1.583-3.798,1.583-6.012v-7.529c0-1.646-0.189-4.237-1.583-6.137c-1.771-2.403-4.429-2.656-5.882-2.656h-7.72v44.288
		H23.604z M23.604,76.032V61.037h2.214c0.696,0,1.709,0.064,2.341,0.822c0.76,0.887,0.76,2.531,0.76,2.848v7.023
		c0,2.214-0.188,2.782-0.315,3.037c-0.633,1.391-1.898,1.265-2.721,1.265H23.604z"/>
	<path fill="#FFFFFF" d="M52.012,100.645l-5.567-44.288h-6.325l-5.568,44.288h5.062l0.885-8.163h5.568l0.886,8.163H52.012z
		 M40.939,87.799l2.278-21.954l0.127,0.063l2.278,21.891H40.939z"/>
	<path fill="#FFFFFF" d="M67.516,100.645V56.356H62.58v20.372h-2.847c-0.886,0-1.583-0.064-2.025-0.886
		c-0.19-0.316-0.316-0.886-0.316-3.038V56.356h-4.936v16.765c0,3.164,0.255,4.998,1.202,6.264c1.329,1.836,3.354,2.024,5.314,2.024
		h3.607v19.235H67.516z"/>
	<path fill="#FFFFFF" d="M0.176,48.838h9.697c3.14,0,4.884-1.606,5.859-3.141c1.188-1.953,1.188-4.256,1.188-6.35v-6.977
		c0-1.953,0-3.768-0.628-5.303c-0.56-1.395-1.744-2.93-4.117-3.627l0.071-0.21c1.395-0.278,2.65-0.977,3.486-2.511
		c0.908-1.604,0.978-3.559,0.978-5.303v-4.884c0-2.722-0.14-5.722-1.883-7.884C13.85,1.465,11.896,0,8.548,0H0.176V48.838z
		 M5.617,43.674V25.533h1.605c0.906,0,2.581,0.07,3.558,1.675c0.698,1.187,0.698,2.86,0.698,4.675v7.256
		c0,1.744-0.209,2.722-0.628,3.348c-0.768,1.117-2.232,1.188-2.932,1.188H5.617z M5.617,20.511V5.162h1.605
		c1.465,0,2.581,0.488,3.209,1.116c0.907,0.978,0.907,2.511,0.907,3.558v5.86c0,1.604-0.141,3.001-0.837,3.838
		c-0.839,0.906-1.954,0.977-2.721,0.977H5.617z"/>
	<path fill="#FFFFFF" d="M38.058,48.838L31.917,0h-6.978L18.8,48.838h5.581l0.978-9.001h6.14l0.978,9.001H38.058z M25.847,34.673
		l2.512-24.208l0.14,0.069l2.512,24.139H25.847z"/>
	<path fill="#FFFFFF" d="M67.634,48.838V0h-5.44v43.674h-5.164V0h-5.441v43.674h-5.163V0h-5.442v48.838H67.634z"/>
	<path fill-rule="evenodd" clip-rule="evenodd" fill="#FFFFFF" d="M67.646,112.627H28.902l-15.258,15.258v-15.258H0v-4.913h13.645
		v-0.003h4.904v7.641l7.64-7.641h7.631l-0.004,0.003h33.831V112.627z"/>
</g>
</svg>
